<svg width="22" height="26" viewBox="0 0 22 26" fill="none" xmlns="http://www.w3.org/2000/svg">
<path d="M10.9867 0.664062L0.908203 4.1926V13.7245C0.908203 18.0194 3.3441 21.8513 7.11974 23.4798L11.0019 25.1723L14.8842 23.4798C18.6598 21.8353 21.0957 18.0034 21.0957 13.7245V4.1926L10.9867 0.664062ZM19.4819 13.7245C19.4819 17.3328 17.4418 20.558 14.26 21.9471L11.0019 23.3681L7.72871 21.9471C4.54682 20.558 2.50676 17.3328 2.50676 13.7245V5.39007L10.9867 2.42035L11.1085 2.46825L19.4819 5.39007V13.7245Z" fill="#343434"/>
<path d="M9.0839 12.9743L8.10954 11.9525C7.9573 11.7928 7.74416 11.713 7.54624 11.713C7.34833 11.713 7.13519 11.7928 6.98294 11.9525C6.8307 12.1122 6.75458 12.3197 6.75458 12.5432C6.75458 12.7668 6.8307 12.9743 6.98294 13.134L9.6472 15.9281C9.79945 16.0878 9.99736 16.1676 10.2105 16.1676C10.4236 16.1676 10.6216 16.0718 10.7738 15.8962L15.7826 10.292C16.0871 9.95672 16.0719 9.42983 15.7522 9.11051C15.5999 8.95084 15.402 8.85505 15.1736 8.88698C14.9605 8.88698 14.7626 8.98278 14.6103 9.1584L11.261 12.9264C10.9717 13.2458 10.5911 13.4214 10.1801 13.4374C9.769 13.4533 9.38839 13.2777 9.0839 12.9743Z" fill="#343434"/>
</svg>
