<svg version="1.1" id="Layer_1" xmlns="http://www.w3.org/2000/svg" xlink="http://www.w3.org/1999/xlink" x="0px" y="0px" viewBox="0 0 15 15" style="enable-background:new 0 0 15 15;" space="preserve">
<style type="text/css">
	.st0{enable-background:new    ;}
</style>
<g class="st0">
	<path d="M13.5,4.8c0,4.1-3.1,8.7-8.7,8.7c-1.7,0-3.4-0.5-4.7-1.4c0.2,0,0.5,0,0.7,0c1.4,0,2.8-0.5,3.8-1.3c-1.4,0-2.5-0.9-2.9-2.1
		c0.2,0,0.4,0,0.6,0c0.3,0,0.6,0,0.8-0.1c-1.4-0.3-2.5-1.5-2.5-3v0C1,5.9,1.5,6.1,2,6.1C1.2,5.5,0.6,4.6,0.6,3.5C0.6,3,0.8,2.4,1,2
		c1.5,1.9,3.8,3.1,6.3,3.2c0-0.2-0.1-0.5-0.1-0.7c0-1.7,1.4-3.1,3.1-3.1c0.9,0,1.7,0.4,2.2,1c0.7-0.1,1.4-0.4,2-0.7
		c-0.2,0.7-0.7,1.3-1.4,1.7c0.6-0.1,1.2-0.2,1.8-0.5c-0.4,0.6-0.9,1.2-1.5,1.6C13.5,4.6,13.5,4.7,13.5,4.8z"></path>
</g>
</svg>